<mxfile host="app.diagrams.net" modified="2023-08-17T01:31:22.409Z" agent="Mozilla/5.0 (Windows NT 10.0; Win64; x64) AppleWebKit/537.36 (KHTML, like Gecko) Chrome/115.0.0.0 Safari/537.36 Edg/115.0.1901.203" version="21.6.8" etag="kO6wVteiLBUC39njRuMS" type="github">
  <diagram name="第 1 页" id="QWYnH2GjadzTsd9GUUUq">
    <mxGraphModel>
      <root>
        <mxCell id="0" />
        <mxCell id="1" parent="0" />
      </root>
    </mxGraphModel>
  </diagram>
</mxfile>
